<svg width="203" height="68" viewBox="0 0 203 68" fill="none" xmlns="http://www.w3.org/2000/svg">
<path d="M186.834 0.000124995H16.1748C15.5527 0.000124995 14.9381 0.000124995 14.3177 0.003525C13.7983 0.006925 13.2831 0.016802 12.7587 0.025115C11.6196 0.0385481 10.4832 0.138975 9.35929 0.325522C8.23699 0.516131 7.14984 0.875482 6.13461 1.39142C5.12063 1.91173 4.19412 2.58781 3.38871 3.39514C2.57907 4.20021 1.90416 5.13075 1.38996 6.151C0.874333 7.16921 0.516797 8.26032 0.329698 9.38664C0.140821 10.5115 0.0391845 11.6494 0.0257007 12.79C0.00995796 13.3113 0.00829547 13.8342 0 14.3555V53.6497C0.00829547 54.1776 0.00995796 54.689 0.0257007 55.217C0.0391886 56.3576 0.140825 57.4954 0.329698 58.6202C0.51628 59.7472 0.873838 60.8389 1.38996 61.8575C1.90393 62.8745 2.57893 63.8012 3.38871 64.6018C4.19107 65.4128 5.11817 66.0893 6.13461 66.6056C7.14983 67.1229 8.23686 67.4844 9.35929 67.678C10.4834 67.863 11.6197 67.9635 12.7587 67.9785C13.2831 67.9901 13.7983 67.9967 14.3177 67.9967C14.9381 68.0001 15.5527 68.0001 16.1748 68.0001H186.834C187.444 68.0001 188.064 68.0001 188.673 67.9967C189.19 67.9967 189.72 67.9901 190.237 67.9785C191.374 67.9643 192.508 67.8638 193.63 67.678C194.756 67.4831 195.847 67.1217 196.867 66.6056C197.883 66.089 198.809 65.4125 199.611 64.6018C200.418 63.7981 201.095 62.872 201.615 61.8575C202.127 60.8382 202.481 59.7465 202.665 58.6202C202.854 57.4952 202.96 56.3577 202.98 55.217C202.987 54.689 202.987 54.1776 202.987 53.6497C203 53.0321 203 52.4179 203 51.7903V16.2115C203 15.589 203 14.9714 202.987 14.3555C202.987 13.8342 202.987 13.3113 202.98 12.79C202.96 11.6492 202.854 10.5116 202.665 9.38657C202.481 8.2609 202.127 7.16988 201.615 6.15093C200.568 4.10596 198.907 2.44137 196.867 1.39127C195.847 0.87659 194.756 0.517334 193.63 0.325369C192.508 0.138 191.374 0.0375382 190.237 0.024877C189.72 0.016581 189.19 0.006619 188.673 0.003304C188.064 -9.60047e-05 187.444 0.000124995 186.834 0.000124995Z" fill="black"/>
<path d="M14.3259 66.5125C13.809 66.5125 13.3047 66.5059 12.7919 66.4944C11.7295 66.4805 10.6697 66.3878 9.62102 66.2171C8.64319 66.0483 7.69594 65.7344 6.8105 65.2857C5.93319 64.8406 5.133 64.2571 4.44061 63.5574C3.73819 62.866 3.1534 62.0641 2.7094 61.1834C2.26051 60.297 1.94985 59.3469 1.78825 58.3661C1.61373 57.3123 1.5193 56.2468 1.50579 55.1786C1.49504 54.8201 1.48096 53.6264 1.48096 53.6264V14.3554C1.48096 14.3554 1.49595 13.18 1.50588 12.8347C1.51881 11.7683 1.61269 10.7044 1.78669 9.65219C1.94859 8.66877 2.25949 7.71592 2.70862 6.82662C3.15098 5.94655 3.73253 5.14401 4.43072 4.4501C5.12812 3.74961 5.93086 3.16308 6.80967 2.71191C7.69307 2.26461 8.63853 1.95289 9.61439 1.78721C10.6665 1.61477 11.73 1.52154 12.796 1.50831L14.3267 1.48755H188.665L190.214 1.50914C191.27 1.52172 192.324 1.61411 193.367 1.78554C194.352 1.95331 195.308 2.2672 196.201 2.71689C197.962 3.62613 199.394 5.06463 200.298 6.83077C200.74 7.71393 201.046 8.65901 201.206 9.63393C201.382 10.6947 201.48 11.767 201.501 12.8422C201.506 13.3236 201.506 13.8408 201.506 14.3554C201.519 14.9929 201.519 15.5997 201.519 16.2115V51.7902C201.519 52.4078 201.519 53.0105 201.506 53.618C201.506 54.1709 201.506 54.6773 201.499 55.1985C201.479 56.2545 201.382 57.3077 201.209 58.3495C201.051 59.3373 200.742 60.2948 200.293 61.1885C199.846 62.0596 199.264 62.8546 198.57 63.5442C197.877 64.2476 197.076 64.8346 196.196 65.2824C195.305 65.7346 194.351 66.0497 193.367 66.2171C192.318 66.3887 191.258 66.4814 190.196 66.4944C189.699 66.5059 189.178 66.5125 188.673 66.5125L186.834 66.5159L14.3259 66.5125Z" fill="black"/>
<path d="M42.0184 34.5112C42.0366 33.0923 42.4127 31.701 43.1117 30.4669C43.8107 29.2328 44.8098 28.1959 46.0161 27.4527C45.2498 26.3559 44.2388 25.4533 43.0635 24.8166C41.8882 24.1798 40.5809 23.8265 39.2454 23.7846C36.3968 23.485 33.6351 25.4928 32.1834 25.4928C30.7037 25.4928 28.4687 23.8144 26.0619 23.864C24.5052 23.9144 22.988 24.3681 21.6582 25.1808C20.3284 25.9935 19.2314 27.1375 18.474 28.5014C15.1931 34.1937 17.6404 42.5595 20.7832 47.1607C22.3556 49.4138 24.1933 51.9306 26.5978 51.8413C28.9509 51.7435 29.8297 50.3377 32.67 50.3377C35.4839 50.3377 36.3084 51.8413 38.7618 51.7846C41.2867 51.7435 42.8775 49.5215 44.3948 47.247C45.5245 45.6416 46.3939 43.8673 46.9706 41.9898C45.5037 41.368 44.2519 40.3273 43.3713 38.9974C42.4906 37.6675 42.0201 36.1073 42.0184 34.5112Z" fill="white"/>
<path d="M37.3845 20.7585C38.7611 19.1024 39.4394 16.9737 39.2751 14.8245C37.1719 15.0458 35.229 16.0532 33.8338 17.6458C33.1516 18.4238 32.6291 19.329 32.2962 20.3095C31.9632 21.29 31.8264 22.3266 31.8936 23.3602C32.9456 23.371 33.9863 23.1425 34.9374 22.6919C35.8886 22.2412 36.7252 21.5802 37.3845 20.7585Z" fill="white"/>
<path d="M71.7624 46.1374H63.7325L61.8042 51.8434H58.4031L66.0088 30.7328H69.5424L77.1481 51.8434H73.689L71.7624 46.1374ZM64.5642 43.5044H70.9291L67.7914 34.2441H67.7036L64.5642 43.5044Z" fill="white"/>
<path d="M93.5738 44.1486C93.5738 48.9315 91.0193 52.0044 87.1642 52.0044C86.1877 52.0556 85.2165 51.8302 84.3618 51.354C83.5072 50.8777 82.8037 50.1699 82.3318 49.3116H82.2588V56.9351H79.1062V36.4521H82.1578V39.012H82.2158C82.7094 38.1579 83.4248 37.4537 84.286 36.9746C85.1471 36.4955 86.1218 36.2592 87.1062 36.291C91.0043 36.2911 93.5738 39.3789 93.5738 44.1486ZM90.3334 44.1486C90.3334 41.0325 88.7264 38.9838 86.2746 38.9838C83.8658 38.9838 82.2456 41.0756 82.2456 44.1486C82.2456 47.2498 83.8658 49.3266 86.2746 49.3266C88.7265 49.3266 90.3334 47.2929 90.3334 44.1486Z" fill="white"/>
<path d="M110.478 44.1486C110.478 48.9315 107.924 52.0044 104.069 52.0044C103.092 52.0556 102.121 51.8302 101.266 51.3539C100.412 50.8777 99.7082 50.1699 99.2363 49.3116H99.1634V56.9351H96.0107V36.4521H99.0623V39.012H99.1203C99.6139 38.1578 100.329 37.4537 101.19 36.9746C102.052 36.4955 103.026 36.2592 104.011 36.291C107.909 36.291 110.478 39.3789 110.478 44.1486ZM107.238 44.1486C107.238 41.0325 105.631 38.9838 103.179 38.9838C100.77 38.9838 99.1501 41.0756 99.1501 44.1486C99.1501 47.2497 100.77 49.3266 103.179 49.3266C105.631 49.3266 107.238 47.2929 107.238 44.1486H107.238Z" fill="white"/>
<path d="M121.651 45.9614C121.884 48.0549 123.914 49.4294 126.687 49.4294C129.344 49.4294 131.256 48.0548 131.256 46.1672C131.256 44.5286 130.103 43.5475 127.373 42.8751L124.643 42.216C120.774 41.2797 118.979 39.4668 118.979 36.525C118.979 32.8826 122.146 30.3807 126.644 30.3807C131.095 30.3807 134.147 32.8826 134.25 36.525H131.067C130.877 34.4182 129.139 33.1466 126.599 33.1466C124.06 33.1466 122.322 34.4332 122.322 36.3058C122.322 37.7983 123.432 38.6765 126.147 39.3488L128.468 39.9199C132.79 40.9443 134.586 42.6841 134.586 45.772C134.586 49.7215 131.447 52.1951 126.453 52.1951C121.782 52.1951 118.627 49.7796 118.424 45.9612L121.651 45.9614Z" fill="white"/>
<path d="M141.39 32.8096V36.452H144.311V38.9538H141.39V47.4389C141.39 48.757 141.975 49.3713 143.259 49.3713C143.605 49.3652 143.952 49.3408 144.296 49.2982V51.7851C143.718 51.8932 143.132 51.9421 142.545 51.9312C139.435 51.9312 138.222 50.7608 138.222 47.7758V38.9538H135.989V36.452H138.222V32.8096H141.39Z" fill="white"/>
<path d="M146.002 44.1484C146.002 39.3058 148.848 36.2627 153.287 36.2627C157.74 36.2627 160.572 39.3057 160.572 44.1484C160.572 49.0044 157.754 52.0342 153.287 52.0342C148.82 52.0342 146.002 49.0044 146.002 44.1484ZM157.36 44.1484C157.36 40.8265 155.841 38.8658 153.286 38.8658C150.732 38.8658 149.214 40.8414 149.214 44.1484C149.214 47.4837 150.732 49.4294 153.286 49.4294C155.841 49.4294 157.36 47.4837 157.36 44.1484H157.36Z" fill="white"/>
<path d="M163.172 36.4519H166.178V39.0716H166.251C166.455 38.2535 166.933 37.5304 167.606 37.024C168.279 36.5176 169.105 36.2587 169.946 36.2909C170.309 36.2896 170.671 36.3292 171.026 36.4088V39.3638C170.567 39.2234 170.089 39.1589 169.609 39.1729C169.151 39.1543 168.695 39.2352 168.271 39.4101C167.847 39.585 167.466 39.8498 167.154 40.1862C166.842 40.5226 166.606 40.9227 166.463 41.3591C166.32 41.7954 166.272 42.2576 166.324 42.714V51.8432H163.172L163.172 36.4519Z" fill="white"/>
<path d="M185.561 47.3227C185.137 50.1167 182.422 52.0342 178.948 52.0342C174.48 52.0342 171.707 49.0343 171.707 44.2215C171.707 39.3938 174.495 36.2627 178.816 36.2627C183.065 36.2627 185.737 39.1879 185.737 43.8546V44.937H174.889V45.1279C174.839 45.6944 174.91 46.265 175.097 46.8019C175.284 47.3389 175.583 47.8298 175.973 48.2421C176.364 48.6544 176.838 48.9787 177.363 49.1935C177.889 49.4082 178.454 49.5084 179.021 49.4875C179.766 49.5574 180.514 49.3845 181.153 48.9945C181.792 48.6044 182.288 48.0181 182.568 47.3226L185.561 47.3227ZM174.904 42.729H182.583C182.611 42.2197 182.534 41.71 182.356 41.232C182.179 40.7539 181.905 40.3178 181.551 39.951C181.197 39.5842 180.772 39.2946 180.301 39.1004C179.83 38.9063 179.324 38.8117 178.816 38.8227C178.302 38.8196 177.793 38.9184 177.318 39.1135C176.843 39.3086 176.411 39.596 176.048 39.9591C175.684 40.3223 175.396 40.7541 175.199 41.2295C175.003 41.7049 174.903 42.2145 174.904 42.729V42.729Z" fill="white"/>
<path d="M64.1689 14.8427C64.8299 14.7952 65.4931 14.8952 66.1108 15.1357C66.7285 15.3761 67.2852 15.7509 67.7408 16.2331C68.1965 16.7152 68.5396 17.2927 68.7456 17.9239C68.9515 18.555 69.0151 19.2241 68.9318 19.8829C68.9318 23.1235 67.184 24.9863 64.1689 24.9863H60.5127V14.8427H64.1689ZM62.0848 23.5518H63.9933C64.4656 23.5801 64.9382 23.5025 65.3768 23.3246C65.8154 23.1468 66.2089 22.8732 66.5287 22.5237C66.8485 22.1743 67.0864 21.7577 67.2253 21.3045C67.3642 20.8512 67.4004 20.3727 67.3315 19.9036C67.3954 19.4364 67.3555 18.9608 67.2145 18.5108C67.0735 18.0609 66.8349 17.6478 66.5159 17.3011C66.1968 16.9544 65.8052 16.6828 65.3691 16.5056C64.933 16.3284 64.4632 16.25 63.9933 16.2761H62.0848V23.5518Z" fill="white"/>
<path d="M70.7077 21.1554C70.6597 20.6524 70.7171 20.1448 70.8763 19.6653C71.0355 19.1858 71.2929 18.7449 71.6321 18.3709C71.9713 17.997 72.3848 17.6982 72.8459 17.4937C73.3071 17.2892 73.8058 17.1836 74.3101 17.1836C74.8144 17.1836 75.3131 17.2892 75.7743 17.4937C76.2355 17.6982 76.6489 17.997 76.9881 18.3709C77.3273 18.7449 77.5847 19.1858 77.7439 19.6653C77.9031 20.1448 77.9605 20.6524 77.9125 21.1554C77.9614 21.659 77.9047 22.1673 77.7459 22.6476C77.5872 23.1279 77.3299 23.5696 76.9906 23.9443C76.6513 24.319 76.2376 24.6184 75.7759 24.8233C75.3143 25.0282 74.815 25.1341 74.3101 25.1341C73.8052 25.1341 73.3059 25.0282 72.8443 24.8233C72.3826 24.6184 71.9689 24.319 71.6296 23.9443C71.2904 23.5696 71.0331 23.1279 70.8743 22.6476C70.7155 22.1673 70.6588 21.659 70.7077 21.1554ZM76.3619 21.1554C76.3619 19.4961 75.618 18.5258 74.3126 18.5258C73.0022 18.5258 72.265 19.4961 72.265 21.1555C72.265 22.8281 73.0022 23.7909 74.3126 23.7909C75.6181 23.7909 76.3619 22.8214 76.3619 21.1554H76.3619Z" fill="white"/>
<path d="M87.4897 24.9862H85.9258L84.347 19.3483H84.2277L82.6556 24.9862H81.1066L79.001 17.3312H80.5301L81.8985 23.1724H82.0111L83.5816 17.3312H85.0279L86.5984 23.1724H86.7177L88.0794 17.3312H89.587L87.4897 24.9862Z" fill="white"/>
<path d="M91.3579 17.3312H92.8091V18.5473H92.9218C93.1129 18.1105 93.4352 17.7444 93.8439 17.4999C94.2525 17.2554 94.727 17.1448 95.2014 17.1834C95.573 17.1554 95.9463 17.2116 96.2933 17.3478C96.6404 17.4839 96.9525 17.6966 97.2064 17.97C97.4603 18.2435 97.6496 18.5707 97.7602 18.9273C97.8708 19.284 97.8999 19.6611 97.8454 20.0306V24.9861H96.3378V20.41C96.3378 19.1798 95.8044 18.568 94.6895 18.568C94.4371 18.5562 94.1852 18.5993 93.951 18.6942C93.7168 18.7891 93.5058 18.9336 93.3326 19.1179C93.1593 19.3022 93.0279 19.5218 92.9473 19.7617C92.8666 20.0016 92.8387 20.2562 92.8655 20.5079V24.9862H91.3579L91.3579 17.3312Z" fill="white"/>
<path d="M100.248 14.3429H101.755V24.9862H100.248V14.3429Z" fill="white"/>
<path d="M103.851 21.1553C103.803 20.6522 103.86 20.1446 104.019 19.6651C104.179 19.1856 104.436 18.7447 104.775 18.3707C105.115 17.9967 105.528 17.6979 105.989 17.4934C106.45 17.289 106.949 17.1833 107.454 17.1833C107.958 17.1833 108.457 17.289 108.918 17.4934C109.379 17.6979 109.793 17.9967 110.132 18.3707C110.471 18.7447 110.728 19.1856 110.888 19.6651C111.047 20.1446 111.104 20.6522 111.056 21.1553C111.105 21.6589 111.048 22.1672 110.89 22.6475C110.731 23.1278 110.473 23.5695 110.134 23.9442C109.795 24.3189 109.381 24.6183 108.919 24.8232C108.458 25.0281 107.958 25.1339 107.454 25.1339C106.949 25.1339 106.449 25.0281 105.988 24.8232C105.526 24.6183 105.112 24.3189 104.773 23.9442C104.434 23.5695 104.176 23.1278 104.017 22.6475C103.859 22.1672 103.802 21.6589 103.851 21.1553ZM109.505 21.1553C109.505 19.496 108.761 18.5257 107.456 18.5257C106.145 18.5257 105.408 19.496 105.408 21.1554C105.408 22.828 106.145 23.7908 107.456 23.7908C108.761 23.7908 109.505 22.8213 109.505 21.1553H109.505Z" fill="white"/>
<path d="M112.644 22.8214C112.644 21.4434 113.667 20.649 115.485 20.5361L117.554 20.4166V19.7559C117.554 18.9474 117.02 18.4908 115.99 18.4908C115.148 18.4908 114.565 18.8005 114.398 19.3417H112.938C113.093 18.0268 114.327 17.1835 116.06 17.1835C117.975 17.1835 119.055 18.1389 119.055 19.7559V24.9862H117.604V23.9104H117.484C117.242 24.2963 116.902 24.6109 116.499 24.8221C116.096 25.0332 115.644 25.1334 115.19 25.1123C114.869 25.1457 114.545 25.1115 114.238 25.0117C113.932 24.9119 113.649 24.7488 113.409 24.533C113.17 24.3171 112.977 24.0533 112.846 23.7585C112.714 23.4637 112.645 23.1444 112.644 22.8214ZM117.554 22.1672V21.5273L115.688 21.6468C114.637 21.7173 114.159 22.0759 114.159 22.7508C114.159 23.4397 114.756 23.8407 115.576 23.8407C115.816 23.865 116.059 23.8407 116.29 23.7692C116.52 23.6976 116.734 23.5803 116.919 23.4242C117.103 23.268 117.255 23.0763 117.364 22.8604C117.473 22.6444 117.538 22.4087 117.554 22.1672Z" fill="white"/>
<path d="M121.036 21.1554C121.036 18.7365 122.277 17.2042 124.207 17.2042C124.684 17.1822 125.158 17.2967 125.573 17.5346C125.988 17.7724 126.326 18.1236 126.549 18.5472H126.662V14.3429H128.17V24.9862H126.725V23.7767H126.606C126.366 24.1975 126.015 24.5443 125.592 24.7797C125.169 25.0152 124.69 25.1302 124.207 25.1123C122.264 25.1124 121.036 23.58 121.036 21.1554ZM122.593 21.1554C122.593 22.779 123.357 23.756 124.634 23.756C125.905 23.756 126.69 22.7649 126.69 21.162C126.69 19.5666 125.897 18.5614 124.634 18.5614C123.365 18.5614 122.593 19.545 122.593 21.1554H122.593Z" fill="white"/>
<path d="M134.407 21.1554C134.359 20.6524 134.416 20.1448 134.576 19.6653C134.735 19.1858 134.992 18.7449 135.331 18.3709C135.671 17.997 136.084 17.6982 136.545 17.4937C137.006 17.2892 137.505 17.1836 138.009 17.1836C138.514 17.1836 139.012 17.2892 139.474 17.4937C139.935 17.6982 140.348 17.997 140.687 18.3709C141.026 18.7449 141.284 19.1858 141.443 19.6653C141.602 20.1448 141.66 20.6524 141.612 21.1554C141.661 21.659 141.604 22.1673 141.445 22.6476C141.286 23.1279 141.029 23.5696 140.69 23.9443C140.351 24.319 139.937 24.6184 139.475 24.8233C139.014 25.0282 138.514 25.1341 138.009 25.1341C137.504 25.1341 137.005 25.0282 136.543 24.8233C136.082 24.6184 135.668 24.319 135.329 23.9443C134.99 23.5696 134.732 23.1279 134.574 22.6476C134.415 22.1673 134.358 21.659 134.407 21.1554ZM140.061 21.1554C140.061 19.4961 139.317 18.5258 138.012 18.5258C136.701 18.5258 135.964 19.4961 135.964 21.1555C135.964 22.8281 136.701 23.7909 138.012 23.7909C139.317 23.7909 140.061 22.8214 140.061 21.1554Z" fill="white"/>
<path d="M143.635 17.3312H145.086V18.5473H145.198C145.39 18.1105 145.712 17.7444 146.12 17.4999C146.529 17.2554 147.004 17.1448 147.478 17.1834C147.85 17.1554 148.223 17.2116 148.57 17.3478C148.917 17.4839 149.229 17.6966 149.483 17.97C149.737 18.2435 149.926 18.5707 150.037 18.9273C150.147 19.284 150.177 19.6611 150.122 20.0306V24.9861H148.614V20.41C148.614 19.1798 148.081 18.568 146.966 18.568C146.714 18.5562 146.462 18.5993 146.228 18.6942C145.993 18.7891 145.782 18.9336 145.609 19.1179C145.436 19.3022 145.305 19.5218 145.224 19.7617C145.143 20.0016 145.115 20.2562 145.142 20.5079V24.9862H143.635V17.3312Z" fill="white"/>
<path d="M158.641 15.4253V17.366H160.296V18.6385H158.641V22.5748C158.641 23.3766 158.97 23.7277 159.721 23.7277C159.913 23.7271 160.105 23.7155 160.296 23.6929V24.9513C160.025 24.9998 159.751 25.0256 159.476 25.0285C157.799 25.0285 157.131 24.4374 157.131 22.9616V18.6385H155.919V17.3659H157.131V15.4253H158.641Z" fill="white"/>
<path d="M162.355 14.3429H163.849V18.5614H163.968C164.169 18.1205 164.5 17.7523 164.917 17.5069C165.333 17.2615 165.816 17.1509 166.297 17.1901C166.667 17.1699 167.037 17.2318 167.38 17.3712C167.723 17.5107 168.031 17.7244 168.283 17.9969C168.534 18.2695 168.722 18.5943 168.834 18.9481C168.945 19.302 168.978 19.6761 168.928 20.0439V24.9862H167.419V20.4166C167.419 19.1939 166.851 18.5746 165.786 18.5746C165.527 18.5533 165.266 18.589 165.022 18.6792C164.778 18.7694 164.557 18.9119 164.374 19.0968C164.19 19.2816 164.05 19.5044 163.961 19.7494C163.873 19.9944 163.839 20.2558 163.862 20.5153V24.9861H162.355L162.355 14.3429Z" fill="white"/>
<path d="M177.719 22.9192C177.514 23.6188 177.07 24.224 176.465 24.6288C175.86 25.0337 175.132 25.2124 174.409 25.1338C173.905 25.1471 173.405 25.0505 172.943 24.8508C172.481 24.651 172.067 24.3527 171.732 23.9768C171.396 23.6009 171.146 23.1562 170.999 22.6737C170.852 22.1912 170.811 21.6824 170.88 21.1827C170.813 20.6814 170.854 20.1715 171.001 19.6875C171.148 19.2036 171.396 18.7569 171.73 18.3777C172.064 17.9984 172.476 17.6956 172.937 17.4895C173.398 17.2834 173.897 17.179 174.402 17.1834C176.528 17.1834 177.81 18.6386 177.81 21.0424V21.5695H172.416V21.6542C172.392 21.9351 172.427 22.2178 172.519 22.4843C172.611 22.7508 172.757 22.9951 172.949 23.2016C173.14 23.4081 173.373 23.5721 173.631 23.6833C173.89 23.7945 174.169 23.8503 174.45 23.8472C174.811 23.8906 175.176 23.8255 175.5 23.6602C175.823 23.495 176.09 23.237 176.267 22.9191L177.719 22.9192ZM172.416 20.4522H176.274C176.293 20.1953 176.258 19.9372 176.172 19.6946C176.085 19.452 175.949 19.2302 175.772 19.0434C175.595 18.8567 175.381 18.7091 175.143 18.6102C174.906 18.5113 174.651 18.4632 174.394 18.4692C174.133 18.4659 173.874 18.5149 173.633 18.6134C173.391 18.7119 173.172 18.8579 172.987 19.0427C172.803 19.2275 172.658 19.4474 172.559 19.6895C172.461 19.9316 172.412 20.1909 172.416 20.4522H172.416Z" fill="white"/>
</svg>
