<svg width="226" height="68" viewBox="0 0 226 68" fill="none" xmlns="http://www.w3.org/2000/svg">
<g clip-path="url(#clip0)">
<path d="M209.834 2.92497e-06H16.1748C15.5527 2.92497e-06 14.9381 2.92505e-06 14.3177 0.00340293C13.7983 0.00680293 13.2831 0.0166799 12.7587 0.0249929C11.6196 0.038426 10.4832 0.138853 9.35929 0.3254C8.23699 0.516008 7.14984 0.87536 6.13461 1.3913C5.12063 1.91161 4.19412 2.58769 3.38871 3.39502C2.57907 4.20009 1.90416 5.13063 1.38996 6.15088C0.874333 7.16909 0.516797 8.2602 0.329698 9.38652C0.140821 10.5114 0.0391845 11.6493 0.0257007 12.7899C0.00995796 13.3111 0.00829547 13.8341 0 14.3554V53.6496C0.00829547 54.1775 0.00995796 54.6888 0.0257007 55.2169C0.0391886 56.3574 0.140825 57.4952 0.329698 58.6201C0.51628 59.7471 0.873838 60.8388 1.38996 61.8574C1.90393 62.8743 2.57893 63.8011 3.38871 64.6017C4.19107 65.4126 5.11817 66.0892 6.13461 66.6055C7.14983 67.1228 8.23686 67.4843 9.35929 67.6779C10.4834 67.8629 11.6197 67.9634 12.7587 67.9784C13.2831 67.99 13.7983 67.9966 14.3177 67.9966C14.9381 68 15.5527 68 16.1748 68H209.834C210.444 68 211.064 68 211.673 67.9966C212.19 67.9966 212.72 67.99 213.237 67.9784C214.374 67.9642 215.508 67.8637 216.63 67.6779C217.756 67.4829 218.847 67.1215 219.867 66.6055C220.883 66.0889 221.809 65.4124 222.611 64.6017C223.418 63.798 224.095 62.8719 224.615 61.8574C225.127 60.8381 225.481 59.7464 225.665 58.6201C225.854 57.4951 225.96 56.3575 225.98 55.2169C225.987 54.6888 225.987 54.1775 225.987 53.6496C226 53.032 226 52.4178 226 51.7902V16.2114C226 15.5889 226 14.9713 225.987 14.3554C225.987 13.8341 225.987 13.3111 225.98 12.7899C225.96 11.6491 225.854 10.5115 225.665 9.38645C225.481 8.26078 225.127 7.16976 224.615 6.15081C223.568 4.10584 221.907 2.44125 219.867 1.39115C218.847 0.876468 217.756 0.517212 216.63 0.325247C215.508 0.137878 214.374 0.0374161 213.237 0.0247549C212.72 0.0164589 212.19 0.00649693 211.673 0.00318193C211.064 -0.000218075 210.444 2.92497e-06 209.834 2.92497e-06Z" fill="black"/>
<path d="M14.3259 66.5123C13.809 66.5123 13.3047 66.5057 12.7919 66.4941C11.7295 66.4802 10.6697 66.3876 9.62102 66.2168C8.64319 66.0481 7.69594 65.7342 6.8105 65.2854C5.93319 64.8404 5.133 64.2569 4.44061 63.5572C3.73819 62.8658 3.1534 62.0638 2.7094 61.1831C2.26051 60.2967 1.94985 59.3466 1.78825 58.3659C1.61373 57.3121 1.5193 56.2465 1.50579 55.1784C1.49504 54.8199 1.48096 53.6261 1.48096 53.6261V14.3552C1.48096 14.3552 1.49595 13.1798 1.50588 12.8345C1.51881 11.768 1.61269 10.7041 1.78669 9.65195C1.94859 8.66853 2.25949 7.71568 2.70862 6.82638C3.15098 5.94631 3.73253 5.14377 4.43072 4.44986C5.12812 3.74936 5.93086 3.16283 6.80967 2.71166C7.69307 2.26436 8.63853 1.95265 9.61439 1.78696C10.6665 1.61453 11.73 1.5213 12.796 1.50806L14.3267 1.4873H212.665L214.214 1.50889C215.27 1.52147 216.324 1.61387 217.367 1.7853C218.352 1.95306 219.308 2.26695 220.201 2.71664C221.962 3.62588 223.394 5.06438 224.298 6.83052C224.74 7.71369 225.046 8.65877 225.206 9.63369C225.382 10.6945 225.48 11.7668 225.501 12.8419C225.506 13.3234 225.506 13.8405 225.506 14.3552C225.519 14.9927 225.519 15.5995 225.519 16.2112V51.79C225.519 52.4076 225.519 53.0102 225.506 53.6178C225.506 54.1706 225.506 54.6771 225.499 55.1983C225.479 56.2543 225.382 57.3074 225.209 58.3492C225.051 59.337 224.742 60.2946 224.293 61.1882C223.846 62.0594 223.264 62.8544 222.57 63.5439C221.877 64.2474 221.076 64.8343 220.196 65.2822C219.305 65.7344 218.351 66.0495 217.367 66.2168C216.318 66.3885 215.258 66.4812 214.196 66.4941C213.699 66.5057 213.178 66.5123 212.673 66.5123L210.834 66.5157L14.3259 66.5123Z" fill="black"/>
<path d="M79.2433 17.6556C79.2709 18.2697 79.1734 18.8831 78.9568 19.4587C78.7401 20.0343 78.4087 20.5602 77.9825 21.0049C77.5049 21.496 76.9286 21.8812 76.2913 22.1351C75.6539 22.3891 74.9699 22.5061 74.2841 22.4785C73.5942 22.4939 72.9086 22.368 72.2695 22.1088C71.6305 21.8495 71.0516 21.4624 70.5688 20.9714C69.5892 19.9732 69.0408 18.6328 69.0408 17.237C69.0408 15.8411 69.5892 14.5007 70.5688 13.5025C71.3177 12.7735 72.2663 12.2813 73.2952 12.0876C74.3241 11.894 75.3875 12.0075 76.3518 12.414C76.958 12.6623 77.4987 13.0462 77.9321 13.536L77.0411 14.4236C76.7072 14.023 76.2842 13.7054 75.8056 13.4961C75.327 13.2868 74.8061 13.1915 74.2841 13.2178C73.6251 13.2224 72.9773 13.3876 72.3973 13.6992C71.8172 14.0107 71.3226 14.459 70.9566 15.0049C70.5907 15.5508 70.3645 16.1777 70.298 16.8307C70.2314 17.4838 70.3264 18.1432 70.5747 18.7512C70.823 19.3593 71.217 19.8975 71.7223 20.3188C72.2277 20.7402 72.8289 21.0318 73.4735 21.1682C74.118 21.3046 74.7864 21.2817 75.42 21.1014C76.0536 20.9212 76.6333 20.589 77.1083 20.1341C77.6218 19.5732 77.9196 18.8495 77.9489 18.091H74.2841V16.8853H79.1761C79.2144 17.1404 79.2368 17.3977 79.2433 17.6556Z" fill="white" stroke="white" stroke-width="0.2" stroke-miterlimit="10"/>
<path d="M86.9428 13.4691H82.4038V16.6509H86.5393V17.8566H82.4038V21.0384H86.9428V22.2776H81.0925V12.2299H86.9428V13.4691Z" fill="white" stroke="white" stroke-width="0.2" stroke-miterlimit="10"/>
<path d="M92.4568 22.2776H91.1624V13.4691H88.3381V12.2299H95.3483V13.4691H92.4568V22.2776Z" fill="white" stroke="white" stroke-width="0.2" stroke-miterlimit="10"/>
<path d="M100.291 22.2776V12.2299H101.585V22.2776H100.291Z" fill="white" stroke="white" stroke-width="0.2" stroke-miterlimit="10"/>
<path d="M107.335 22.2776H106.04V13.4691H103.216V12.2299H110.142V13.4691H107.335V22.2776Z" fill="white" stroke="white" stroke-width="0.2" stroke-miterlimit="10"/>
<path d="M123.272 20.9714C122.786 21.4555 122.21 21.8395 121.575 22.1015C120.94 22.3635 120.26 22.4984 119.573 22.4984C118.886 22.4984 118.206 22.3635 117.571 22.1015C116.937 21.8395 116.36 21.4555 115.875 20.9714C114.924 19.9651 114.395 18.6354 114.395 17.2538C114.395 15.8721 114.924 14.5425 115.875 13.5361C116.35 13.0384 116.925 12.6456 117.562 12.3831C118.199 12.1206 118.884 11.9942 119.573 12.0122C120.261 12.0013 120.945 12.1309 121.581 12.393C122.217 12.6551 122.792 13.0441 123.272 13.5361C123.755 14.0259 124.135 14.6072 124.389 15.2458C124.643 15.8843 124.766 16.5671 124.751 17.2538C124.773 17.9413 124.653 18.6261 124.399 19.2655C124.144 19.905 123.761 20.4857 123.272 20.9714ZM116.833 20.1341C117.191 20.4956 117.618 20.7827 118.088 20.9786C118.559 21.1745 119.063 21.2754 119.573 21.2754C120.083 21.2754 120.588 21.1745 121.058 20.9786C121.529 20.7827 121.955 20.4956 122.313 20.1341C123.039 19.3489 123.441 18.3208 123.441 17.2538C123.441 16.1867 123.039 15.1586 122.313 14.3734C121.955 14.0119 121.529 13.7248 121.058 13.5289C120.588 13.333 120.083 13.2321 119.573 13.2321C119.063 13.2321 118.559 13.333 118.088 13.5289C117.618 13.7248 117.191 14.0119 116.833 14.3734C116.108 15.1586 115.705 16.1867 115.705 17.2538C115.705 18.3208 116.108 19.3489 116.833 20.1341Z" fill="white" stroke="white" stroke-width="0.2" stroke-miterlimit="10"/>
<path d="M126.583 22.2776V12.2299H128.147L133.056 20.0504V18.1078V12.2299H134.35V22.2776H133.005L127.878 14.0887V16.0145V22.2776H126.583Z" fill="white" stroke="white" stroke-width="0.2" stroke-miterlimit="10"/>
<path d="M114.076 36.9306C112.659 36.9339 111.276 37.3556 110.1 38.1422C108.924 38.9289 108.009 40.0452 107.47 41.35C106.931 42.6548 106.793 44.0895 107.072 45.4727C107.352 46.8559 108.037 48.1254 109.041 49.1208C110.045 50.1161 111.322 50.7926 112.712 51.0646C114.102 51.3366 115.541 51.192 116.849 50.649C118.156 50.106 119.272 49.189 120.057 48.014C120.841 46.839 121.258 45.4587 121.254 44.0478C121.268 43.1065 121.091 42.1722 120.735 41.3003C120.379 40.4284 119.85 39.6369 119.18 38.9728C118.51 38.3088 117.713 37.7858 116.836 37.4349C115.959 37.0841 115.021 36.9126 114.076 36.9306ZM114.076 48.3683C113.208 48.4288 112.341 48.2277 111.589 47.7912C110.838 47.3547 110.235 46.703 109.86 45.9208C109.485 45.1385 109.354 44.2619 109.486 43.405C109.618 42.548 110.005 41.7503 110.598 41.1156C111.19 40.4808 111.961 40.0384 112.81 39.8458C113.658 39.6532 114.545 39.7193 115.355 40.0355C116.166 40.3518 116.862 40.9035 117.353 41.6191C117.845 42.3346 118.108 43.1809 118.111 44.0478C118.138 44.5971 118.054 45.1462 117.865 45.6628C117.675 46.1794 117.384 46.653 117.008 47.0557C116.632 47.4584 116.179 47.782 115.675 48.0074C115.172 48.2329 114.628 48.3556 114.076 48.3683ZM98.408 36.9306C96.9916 36.9339 95.6079 37.3556 94.4321 38.1422C93.2562 38.9289 92.341 40.0452 91.802 41.35C91.263 42.6548 91.1246 44.0895 91.4042 45.4727C91.6838 46.8559 92.3688 48.1254 93.3727 49.1208C94.3766 50.1161 95.6543 50.7926 97.0441 51.0646C98.434 51.3366 99.8736 51.192 101.181 50.649C102.488 50.106 103.605 49.189 104.389 48.014C105.173 46.839 105.59 45.4587 105.586 44.0478C105.6 43.1065 105.423 42.1722 105.067 41.3003C104.711 40.4284 104.182 39.6369 103.512 38.9728C102.842 38.3088 102.045 37.7858 101.168 37.4349C100.292 37.0841 99.3528 36.9126 98.408 36.9306ZM98.408 48.3683C97.5398 48.4288 96.6735 48.2277 95.9215 47.7912C95.1696 47.3547 94.5669 46.703 94.1918 45.9208C93.8166 45.1385 93.6864 44.2619 93.818 43.405C93.9496 42.548 94.337 41.7503 94.9297 41.1156C95.5224 40.4808 96.2932 40.0384 97.1417 39.8458C97.9902 39.6532 98.8773 39.7193 99.6876 40.0355C100.498 40.3518 101.194 40.9035 101.685 41.6191C102.177 42.3346 102.44 43.1809 102.443 44.0478C102.47 44.5971 102.386 45.1462 102.197 45.6628C102.007 46.1794 101.716 46.653 101.34 47.0557C100.964 47.4584 100.511 47.782 100.007 48.0074C99.5037 48.2329 98.9599 48.3556 98.408 48.3683ZM79.7813 39.1244V42.1387H87.0437C86.9298 43.5585 86.3374 44.8982 85.3626 45.9401C84.6341 46.6795 83.7579 47.2583 82.7907 47.6391C81.8235 48.0198 80.7868 48.1941 79.7477 48.1506C77.6076 48.1506 75.5551 47.3038 74.0418 45.7963C72.5285 44.2888 71.6784 42.2443 71.6784 40.1124C71.6784 37.9806 72.5285 35.936 74.0418 34.4286C75.5551 32.9211 77.6076 32.0742 79.7477 32.0742C81.7994 32.0438 83.7805 32.82 85.2617 34.2345L87.3967 32.1077C86.3948 31.1205 85.2051 30.3425 83.8974 29.8191C82.5898 29.2958 81.1904 29.0376 79.7813 29.0599C78.2868 29.0019 76.7959 29.2451 75.398 29.7749C74.0001 30.3047 72.724 31.1101 71.646 32.1429C70.5681 33.1757 69.7105 34.4147 69.1248 35.7855C68.539 37.1564 68.2371 38.6309 68.2371 40.1208C68.2371 41.6107 68.539 43.0852 69.1248 44.4561C69.7105 45.8269 70.5681 47.0659 71.646 48.0987C72.724 49.1315 74.0001 49.9369 75.398 50.4667C76.7959 50.9965 78.2868 51.2396 79.7813 51.1817C81.2194 51.2389 82.6533 50.9925 83.989 50.4585C85.3246 49.9246 86.5318 49.1153 87.5312 48.0836C89.2966 46.1518 90.2372 43.611 90.1537 41C90.1597 40.3715 90.1091 39.7438 90.0024 39.1244H79.7813ZM155.952 41.4689C155.514 40.184 154.694 39.0621 153.601 38.2517C152.508 37.4412 151.194 36.9806 149.833 36.9306C148.913 36.9288 148.003 37.115 147.159 37.4775C146.314 37.84 145.553 38.3712 144.923 39.0382C144.293 39.7053 143.807 40.494 143.495 41.3556C143.182 42.2173 143.051 43.1336 143.109 44.0478C143.094 45.5765 143.577 47.0688 144.484 48.3018C145.391 49.5348 146.674 50.4424 148.142 50.8889C149.61 51.3354 151.183 51.297 152.627 50.7793C154.071 50.2616 155.308 49.2925 156.154 48.0167L153.716 46.342C153.353 46.9454 152.838 47.4436 152.221 47.7873C151.605 48.131 150.909 48.3082 150.203 48.3014C149.474 48.3313 148.754 48.141 148.135 47.7555C147.517 47.3699 147.031 46.8071 146.74 46.1411L156.305 42.2057L155.952 41.4689ZM146.202 43.8468C146.168 43.3267 146.238 42.805 146.409 42.3122C146.58 41.8195 146.848 41.3657 147.197 40.9774C147.546 40.5891 147.969 40.2741 148.442 40.0508C148.915 39.8275 149.428 39.7004 149.951 39.677C150.492 39.6441 151.032 39.7711 151.501 40.0422C151.971 40.3133 152.349 40.7164 152.59 41.2009L146.202 43.8468ZM138.435 50.7463H141.579V29.8135H138.435V50.7463ZM133.291 38.5215H133.173C132.704 37.9888 132.124 37.5633 131.474 37.2743C130.824 36.9853 130.119 36.8395 129.408 36.8469C127.57 36.9356 125.838 37.7251 124.569 39.0517C123.301 40.3783 122.593 42.1402 122.593 43.9724C122.593 45.8047 123.301 47.5666 124.569 48.8932C125.838 50.2198 127.57 51.0092 129.408 51.098C130.12 51.1122 130.827 50.9695 131.478 50.68C132.129 50.3905 132.708 49.9614 133.173 49.4233H133.291V50.4449C133.291 53.1745 131.828 54.6314 129.475 54.6314C128.689 54.6142 127.925 54.3647 127.282 53.9144C126.638 53.4642 126.143 52.8336 125.86 52.1028L123.137 53.2248C123.641 54.4845 124.516 55.5623 125.648 56.3159C126.779 57.0694 128.114 57.463 129.475 57.4448C133.156 57.4448 136.199 55.2845 136.199 50.0262V37.3493H133.291V38.5215ZM129.677 48.3683C128.575 48.2999 127.541 47.8158 126.786 47.0147C126.03 46.2135 125.609 45.1555 125.609 44.0562C125.609 42.9568 126.03 41.8988 126.786 41.0977C127.541 40.2965 128.575 39.8124 129.677 39.744C130.215 39.7671 130.743 39.8979 131.23 40.1286C131.716 40.3592 132.151 40.685 132.509 41.0865C132.866 41.488 133.139 41.9571 133.311 42.4659C133.483 42.9746 133.551 43.5126 133.509 44.0478C133.555 44.5848 133.491 45.1256 133.321 45.6373C133.152 46.149 132.879 46.6211 132.521 47.0249C132.163 47.4288 131.726 47.7561 131.237 47.987C130.748 48.2179 130.217 48.3476 129.677 48.3683ZM170.679 29.8135H163.147V50.7463H166.291V42.8086H170.679C171.575 42.8727 172.474 42.7523 173.321 42.4548C174.169 42.1573 174.945 41.6891 175.603 41.0795C176.26 40.4699 176.785 39.7319 177.143 38.9114C177.502 38.091 177.687 37.2058 177.687 36.311C177.687 35.4162 177.502 34.531 177.143 33.7106C176.785 32.8902 176.26 32.1522 175.603 31.5425C174.945 30.9329 174.169 30.4648 173.321 30.1673C172.474 29.8698 171.575 29.7494 170.679 29.8135ZM170.679 39.8612H166.291V32.7273H170.746C171.218 32.7273 171.686 32.82 172.123 33.0001C172.559 33.1802 172.956 33.4442 173.29 33.777C173.624 34.1097 173.889 34.5048 174.07 34.9396C174.25 35.3744 174.344 35.8404 174.344 36.311C174.344 36.7816 174.25 37.2477 174.07 37.6824C173.889 38.1172 173.624 38.5123 173.29 38.8451C172.956 39.1779 172.559 39.4418 172.123 39.6219C171.686 39.802 171.218 39.8947 170.746 39.8947L170.679 39.8612ZM190.079 36.8636C188.934 36.7933 187.793 37.0588 186.798 37.6273C185.804 38.1958 184.998 39.0423 184.481 40.0622L187.254 41.2177C187.535 40.7143 187.955 40.3025 188.465 40.0321C188.976 39.7617 189.553 39.6442 190.129 39.6938C190.528 39.6473 190.933 39.6805 191.319 39.7914C191.705 39.9023 192.065 40.0887 192.378 40.3397C192.691 40.5907 192.95 40.9012 193.141 41.2532C193.333 41.6052 193.452 41.9916 193.491 42.3899V42.5909C192.48 42.0616 191.355 41.7857 190.213 41.7871C187.221 41.7871 184.161 43.4617 184.161 46.5095C184.191 47.1573 184.351 47.7926 184.632 48.3776C184.913 48.9626 185.309 49.4855 185.796 49.915C186.284 50.3446 186.853 50.6722 187.471 50.8783C188.088 51.0843 188.74 51.1648 189.389 51.1147C190.178 51.1582 190.965 50.9919 191.668 50.6329C192.371 50.2739 192.965 49.7351 193.39 49.0717H193.491V50.7463H196.517V42.6913C196.517 39.0239 193.727 36.8971 190.146 36.8971L190.079 36.8636ZM189.692 48.3348C188.667 48.3348 187.238 47.8157 187.238 46.5597C187.238 44.8851 189.02 44.3157 190.6 44.3157C191.598 44.2912 192.585 44.5341 193.458 45.0191C193.352 45.9285 192.919 46.769 192.239 47.3848C191.559 48.0007 190.678 48.3501 189.759 48.3683L189.692 48.3348ZM207.545 37.3493L203.948 46.4258H203.847L200.115 37.3493H196.753L202.351 50.043L199.157 57.0931H202.435L211.042 37.3493H207.545ZM179.303 50.7463H182.43V29.8135H179.303V50.7463Z" fill="white"/>
<path d="M17.0762 13.1341C16.5222 13.7866 16.2395 14.6253 16.286 15.4786V52.5214C16.2288 53.376 16.5128 54.2187 17.0762 54.8658L17.1938 54.9998L38.0227 34.2512V33.7488L17.1938 13.0169L17.0762 13.1341Z" fill="url(#paint0_linear)"/>
<path d="M44.9152 41.1674L38.0227 34.2512V33.7488L44.9152 26.8326L45.0665 26.9331L53.3208 31.5885C55.6743 32.9115 55.6743 35.0885 53.3208 36.4282L45.1002 41.0837L44.9152 41.1674Z" fill="url(#paint1_linear)"/>
<path d="M45.117 41.0669L38.0228 34L17.0762 54.8658C17.5512 55.2871 18.1592 55.5294 18.7949 55.5508C19.4305 55.5722 20.0535 55.3713 20.5561 54.9831L45.117 41.0669Z" fill="url(#paint2_linear)"/>
<path d="M45.117 26.9331L20.5561 13.0337C20.0568 12.64 19.4342 12.4342 18.7977 12.4526C18.1613 12.471 17.5517 12.7123 17.0762 13.1341L38.0228 34L45.117 26.9331Z" fill="url(#paint3_linear)"/>
<path opacity="0.2" d="M44.9153 40.9162L20.5561 54.7319C20.0718 55.0959 19.4816 55.2929 18.875 55.2929C18.2683 55.2929 17.6781 55.0959 17.1938 54.7319L17.0762 54.8491L17.1938 54.9831C17.6781 55.3471 18.2683 55.5441 18.875 55.5441C19.4816 55.5441 20.0718 55.3471 20.5561 54.9831L45.117 41.0669L44.9153 40.9162Z" fill="black"/>
<path opacity="0.12" d="M17.076 54.6314C16.536 53.9672 16.2714 53.1225 16.3363 52.2702V52.5214C16.2791 53.3761 16.5631 54.2187 17.1264 54.8659L17.2441 54.7486L17.076 54.6314Z" fill="black"/>
<path opacity="0.12" d="M53.3208 36.177L44.9153 40.9162L45.0666 41.0669L53.3208 36.4115C53.808 36.2062 54.2307 35.8739 54.5443 35.4496C54.8579 35.0252 55.0508 34.5244 55.1028 34C54.9977 34.4765 54.7817 34.9218 54.4721 35.3C54.1626 35.6781 53.7682 35.9785 53.3208 36.177Z" fill="black"/>
<path opacity="0.25" d="M20.5559 13.2681L53.3206 31.823C53.7681 32.0215 54.1625 32.3219 54.472 32.7C54.7815 33.0782 54.9975 33.5235 55.1026 34C55.0507 33.4756 54.8577 32.9748 54.5441 32.5504C54.2305 32.1261 53.8079 31.7938 53.3206 31.5885L20.5559 13.0337C18.2192 11.694 16.2859 12.7992 16.2859 15.4786V15.7298C16.3363 13.0504 18.2192 11.9452 20.5559 13.2681Z" fill="white"/>
<path d="M209.834 2.92497e-06H16.1748C15.5527 2.92497e-06 14.9381 2.92505e-06 14.3177 0.00340293C13.7983 0.00680293 13.2831 0.0166799 12.7587 0.0249929C11.6196 0.038426 10.4832 0.138853 9.35929 0.3254C8.23699 0.516008 7.14984 0.87536 6.13461 1.3913C5.12063 1.91161 4.19412 2.58769 3.38871 3.39502C2.57907 4.20009 1.90416 5.13063 1.38996 6.15088C0.874333 7.16909 0.516797 8.2602 0.329698 9.38652C0.140821 10.5114 0.0391845 11.6493 0.0257007 12.7899C0.00995796 13.3111 0.00829547 13.8341 0 14.3554V53.6496C0.00829547 54.1775 0.00995796 54.6888 0.0257007 55.2169C0.0391886 56.3574 0.140825 57.4952 0.329698 58.6201C0.51628 59.7471 0.873838 60.8388 1.38996 61.8574C1.90393 62.8743 2.57893 63.8011 3.38871 64.6017C4.19107 65.4126 5.11817 66.0892 6.13461 66.6055C7.14983 67.1228 8.23686 67.4843 9.35929 67.6779C10.4834 67.8629 11.6197 67.9634 12.7587 67.9784C13.2831 67.99 13.7983 67.9966 14.3177 67.9966C14.9381 68 15.5527 68 16.1748 68H209.834C210.444 68 211.064 68 211.673 67.9966C212.19 67.9966 212.72 67.99 213.237 67.9784C214.374 67.9642 215.508 67.8637 216.63 67.6779C217.756 67.4829 218.847 67.1215 219.867 66.6055C220.883 66.0889 221.809 65.4124 222.611 64.6017C223.418 63.798 224.095 62.8719 224.615 61.8574C225.127 60.8381 225.481 59.7464 225.665 58.6201C225.854 57.4951 225.96 56.3575 225.98 55.2169C225.987 54.6888 225.987 54.1775 225.987 53.6496C226 53.032 226 52.4178 226 51.7902V16.2114C226 15.5889 226 14.9713 225.987 14.3554C225.987 13.8341 225.987 13.3111 225.98 12.7899C225.96 11.6491 225.854 10.5115 225.665 9.38645C225.481 8.26078 225.127 7.16976 224.615 6.15081C223.568 4.10584 221.907 2.44125 219.867 1.39115C218.847 0.876468 217.756 0.517212 216.63 0.325247C215.508 0.137878 214.374 0.0374161 213.237 0.0247549C212.72 0.0164589 212.19 0.00649693 211.673 0.00318193C211.064 -0.000218075 210.444 2.92497e-06 209.834 2.92497e-06Z" fill="white" fill-opacity="0.08"/>
</g>
<defs>
<linearGradient id="paint0_linear" x1="36.1735" y1="15.0934" x2="8.0735" y2="43.3022" gradientUnits="userSpaceOnUse">
<stop stop-color="#00A0FF"/>
<stop offset="0.01" stop-color="#00A1FF"/>
<stop offset="0.26" stop-color="#00BEFF"/>
<stop offset="0.51" stop-color="#00D2FF"/>
<stop offset="0.76" stop-color="#00DFFF"/>
<stop offset="1" stop-color="#00E3FF"/>
</linearGradient>
<linearGradient id="paint1_linear" x1="56.3972" y1="34" x2="15.7312" y2="34" gradientUnits="userSpaceOnUse">
<stop stop-color="#FFE000"/>
<stop offset="0.41" stop-color="#FFBD00"/>
<stop offset="0.78" stop-color="#FFA500"/>
<stop offset="1" stop-color="#FF9C00"/>
</linearGradient>
<linearGradient id="paint2_linear" x1="41.2673" y1="37.8516" x2="3.153" y2="76.0966" gradientUnits="userSpaceOnUse">
<stop stop-color="#FF3A44"/>
<stop offset="1" stop-color="#C31162"/>
</linearGradient>
<linearGradient id="paint3_linear" x1="11.7975" y1="0.808878" x2="28.8116" y2="17.8888" gradientUnits="userSpaceOnUse">
<stop stop-color="#32A071"/>
<stop offset="0.07" stop-color="#2DA771"/>
<stop offset="0.48" stop-color="#15CF74"/>
<stop offset="0.8" stop-color="#06E775"/>
<stop offset="1" stop-color="#00F076"/>
</linearGradient>
<clipPath id="clip0">
<rect width="226" height="68" fill="white"/>
</clipPath>
</defs>
</svg>
