<svg width="20" height="19" viewBox="0 0 20 19" fill="none" xmlns="http://www.w3.org/2000/svg">
<path fill-rule="evenodd" clip-rule="evenodd" d="M9.9999 0.359985C15.3018 0.359985 19.5999 3.80727 19.5999 8.0597C19.5999 12.3121 15.3018 15.7594 9.9999 15.7594C9.75895 15.7594 9.52007 15.7523 9.28357 15.7383C8.33799 16.4762 4.50051 18.7445 3.50449 17.9557C2.51673 17.1734 3.80306 16.643 4.81627 14.6212L4.84768 14.5577C2.17359 13.1909 0.399902 10.7914 0.399902 8.0597C0.399902 3.80727 4.69797 0.359985 9.9999 0.359985ZM9.9999 1.78586C5.48397 1.78586 1.82308 4.60056 1.82308 8.07266C1.82308 10.4659 3.56232 12.5467 6.122 13.6089L6.1181 13.6061C6.49395 13.835 6.58145 14.1475 6.3806 14.5437C5.6649 15.8427 4.86533 16.6084 4.8967 16.6946C4.95496 16.8547 7.65077 15.233 8.30847 14.7009C8.43964 14.5948 8.63974 14.2866 9.7416 14.3646C9.73666 14.3622 9.72973 14.3593 9.72091 14.356C9.81301 14.3583 9.90627 14.3595 9.9999 14.3595C14.5158 14.3595 18.1767 11.5448 18.1767 8.07266C18.1767 4.60056 14.5158 1.78586 9.9999 1.78586Z" fill="white"/>
</svg>
